<svg width="1200" height="900" viewBox="0 0 1200 900" fill="none" xmlns="http://www.w3.org/2000/svg">
  <rect width="1200" height="900" fill="#0b0d10"/>
  <rect x="96" y="96" width="1008" height="708" rx="28" fill="#141820"/>
  <rect x="168" y="150" width="388" height="580" rx="18" fill="#1d2530"/>
  <rect x="650" y="142" width="282" height="146" rx="18" fill="#222a34"/>
  <rect x="650" y="326" width="382" height="248" rx="18" fill="#171c24"/>
  <path d="M410 196c58 96 65 221 23 332-30 78-35 136 19 202" stroke="#67e8f9" stroke-width="22" stroke-linecap="round"/>
  <path d="M294 202c-28 143-9 282 55 415" stroke="#fb7185" stroke-width="18" stroke-linecap="round"/>
  <circle cx="789" cy="215" r="36" fill="#67e8f9" fill-opacity=".75"/>
  <circle cx="870" cy="215" r="36" fill="#fb7185" fill-opacity=".72"/>
  <rect x="708" y="390" width="252" height="26" rx="13" fill="#e7e5e4" fill-opacity=".82"/>
  <rect x="708" y="454" width="204" height="22" rx="11" fill="#67e8f9" fill-opacity=".62"/>
  <rect x="708" y="514" width="280" height="22" rx="11" fill="#fb7185" fill-opacity=".46"/>
</svg>
